<svg xmlns="http://www.w3.org/2000/svg" version="1.1" xmlns:xlink="http://www.w3.org/1999/xlink" xmlns:svgjs="http://svgjs.com/svgjs" width="1440" height="560" preserveAspectRatio="none" viewBox="0 0 1440 560"><g mask="url(&quot;#SvgjsMask1214&quot;)" fill="none"><rect width="1440" height="560" x="0" y="0" fill="url(#SvgjsLinearGradient1215)"></rect><path d="M1440 0L1151.83 0L1440 63.96z" fill="rgba(255, 255, 255, .1)"></path><path d="M1151.83 0L1440 63.96L1440 256.2L970.52 0z" fill="rgba(255, 255, 255, .075)"></path><path d="M970.52 0L1440 256.2L1440 332.6L724.5899999999999 0z" fill="rgba(255, 255, 255, .05)"></path><path d="M724.5899999999999 0L1440 332.6L1440 490.35L537.1499999999999 0z" fill="rgba(255, 255, 255, .025)"></path><path d="M0 560L164.49 560L0 532.43z" fill="rgba(0, 0, 0, .1)"></path><path d="M0 532.43L164.49 560L420.46000000000004 560L0 398.77z" fill="rgba(0, 0, 0, .075)"></path><path d="M0 398.77L420.46000000000004 560L561.24 560L0 261.64z" fill="rgba(0, 0, 0, .05)"></path><path d="M0 261.64L561.24 560L896.86 560L0 85.20999999999998z" fill="rgba(0, 0, 0, .025)"></path></g><defs><mask id="SvgjsMask1214"><rect width="1440" height="560" fill="#ffffff"></rect></mask><linearGradient x1="15.28%" y1="-39.29%" x2="84.72%" y2="139.29%" gradientUnits="userSpaceOnUse" id="SvgjsLinearGradient1215"><stop stop-color="#0e2a47" offset="0"></stop><stop stop-color="rgba(6, 29, 59, 1)" offset="1"></stop></linearGradient></defs></svg>